<?xml version="1.0" encoding="iso-8859-1"?>
<!-- Generator: Adobe Illustrator 19.0.0, SVG Export Plug-In . SVG Version: 6.00 Build 0)  -->
<svg version="1.1" id="Layer_1" xmlns="http://www.w3.org/2000/svg" xmlns:xlink="http://www.w3.org/1999/xlink" x="0px" y="0px"
	 viewBox="0 0 368 368" style="enable-background:new 0 0 368 368;" xml:space="preserve">
<polygon style="fill:#9CE0FF;" points="287.8,244 91.8,224 143.8,156 143.8,52 127.8,52 127.8,8 239.8,8 239.8,52 223.8,52 
	223.8,156 "/>
<polygon style="fill:#80D440;" points="346.2,324 299.8,248 155.8,220 83.8,228 19.8,328 39.8,360 327.8,360 "/>
<g>
	<path style="fill:#61A1DD;" d="M314.6,368H53.4c-15.2,0-28.8-8.4-35.6-22c-6.8-13.6-5.6-29.6,3.6-42l114.4-154.8V63.6
		c-11.2-2-20-11.6-20-23.6V24c0-13.2,10.8-24,24-24h88c13.2,0,24,10.8,24,24v16c0,10.8-7.2,20-17.6,23.2c-0.8,0-1.2,0.4-2,0.4h-0.4
		v85.6L346.6,304c9.2,12.4,10.4,28.4,3.6,42S329.8,368,314.6,368z M151.8,64v88c0,1.6-0.4,3.2-1.6,4.8l-116,156.8
		c-5.6,7.6-6.4,17.2-2,25.2c4,8,12,13.2,21.2,13.2h261.2c9.2,0,17.2-4.8,21.2-13.2c4.4-8.4,3.6-17.6-2-25.2L217.4,156.8
		c-1.2-1.6-1.6-3.2-1.6-4.8V56c0-4.4,3.2-7.6,7.6-8l6.8-0.4c2.8-0.8,5.6-3.6,5.6-7.6V24c0-4.4-3.6-8-8-8h-88c-4.4,0-8,3.6-8,8v16
		c0,4.4,3.6,8,8,8h22c4.4,0,8,3.6,8,8c0,4.4-3.6,8-8,8H151.8z"/>
	<path style="fill:#61A1DD;" d="M201.8,64h-12c-4.4,0-8-3.6-8-8s3.6-8,8-8h12c4.4,0,8,3.6,8,8C209.8,60.4,206.2,64,201.8,64z"/>
	<path style="fill:#61A1DD;" d="M293.4,255.2L293.4,255.2c-14.4-0.4-29.2-2.8-44-7.2l-44.8-13.6c-30.4-9.2-66.4-8.8-96.4,1.6
		l-24.4,8.4c-4,1.6-8.8-0.8-10-4.8c-1.6-4,0.8-8.8,4.8-10l24.4-8.4c32.8-11.2,72.4-12,106-1.6l44.8,13.6c13.2,4,26.8,6,39.6,6.4
		c4.4,0,8,4,7.6,8.4C301.4,251.6,297.8,255.2,293.4,255.2z"/>
</g>
<g>
</g>
<g>
</g>
<g>
</g>
<g>
</g>
<g>
</g>
<g>
</g>
<g>
</g>
<g>
</g>
<g>
</g>
<g>
</g>
<g>
</g>
<g>
</g>
<g>
</g>
<g>
</g>
<g>
</g>
</svg>
