<?xml version="1.0" encoding="iso-8859-1"?>
<!-- Generator: Adobe Illustrator 19.0.0, SVG Export Plug-In . SVG Version: 6.00 Build 0)  -->
<svg version="1.1" id="Layer_1" xmlns="http://www.w3.org/2000/svg" xmlns:xlink="http://www.w3.org/1999/xlink" x="0px" y="0px"
	 viewBox="0 0 496 496" style="enable-background:new 0 0 496 496;" xml:space="preserve">
<g>
	<g>
		<g>
			<path d="M496,240V32H368V0H0v496h283.312L368,411.312V368h88c22.056,0,40-17.944,40-40c0-22.056-17.944-40-40-40h-88v-48H496z
				 M288,468.688V416h52.688L288,468.688z M352,400h-80v80H16V16h336v16H64v208h288v48H152.472l-75.408-8.376L28.688,328
				l48.376,48.376L152.472,368H352V400z M96,352c13.232,0,24-10.768,24-24s-10.768-24-24-24c-10.416,0-19.216,6.712-22.528,16
				h-14.16l23.624-23.624L144,303.168v49.672l-61.064,6.792L59.312,336h14.16C76.784,345.288,85.584,352,96,352z M88,328
				c0-4.416,3.584-8,8-8s8,3.584,8,8c0,4.416-3.584,8-8,8S88,332.416,88,328z M448,304h8c13.232,0,24,10.768,24,24s-10.768,24-24,24
				h-8V304z M432,304v48h-16v-32h-16v32h-16v-32h-16v32h-16v-32h-16v32h-16v-32h-16v32h-16v-32h-16v32h-16v-32h-16v32h-16v-32h-16
				v32h-16v-32h-16v32h-16v-48H432z M80,224V48h400v176H80z"/>
			<path d="M152,64c-30.872,0-56,25.128-56,56v88h16v-48h80v48h16v-88C208,89.128,182.872,64,152,64z M192,144h-80v-24
				c0-22.056,17.944-40,40-40c22.056,0,40,17.944,40,40V144z"/>
			<path d="M336,104c0-22.056-17.944-40-40-40h-72v144h72c22.056,0,40-17.944,40-40c0-13.072-6.304-24.696-16.024-32
				C329.696,128.696,336,117.072,336,104z M320,168c0,13.232-10.768,24-24,24h-56v-48h56C309.232,144,320,154.768,320,168z M296,128
				h-56V80h56c13.232,0,24,10.768,24,24S309.232,128,296,128z"/>
			<path d="M352,136c0,39.704,32.296,72,72,72h40v-16h-40c-30.872,0-56-25.128-56-56s25.128-56,56-56h40V64h-40
				C384.296,64,352,96.296,352,136z"/>
		</g>
	</g>
</g>
<g>
</g>
<g>
</g>
<g>
</g>
<g>
</g>
<g>
</g>
<g>
</g>
<g>
</g>
<g>
</g>
<g>
</g>
<g>
</g>
<g>
</g>
<g>
</g>
<g>
</g>
<g>
</g>
<g>
</g>
</svg>
